<svg width="45" height="15" viewBox="0 0 45 15" fill="none" xmlns="http://www.w3.org/2000/svg">
<path d="M8.21023 4.74432H11.9886C11.9744 1.88921 9.77273 0 6.25 0C2.79119 0 0.348011 1.8608 0.369318 4.63068C0.362216 6.90341 1.93892 8.16761 4.51705 8.72159L5.96591 9.03409C7.58523 9.3892 8.1392 9.79403 8.15341 10.4545C8.1392 11.1719 7.4858 11.6761 6.22159 11.6761C4.70881 11.6761 3.81392 10.9659 3.75 9.63068H0C0.0142045 13.2813 2.4858 14.9148 6.27841 14.9148C9.96449 14.9148 12.1733 13.3239 12.1875 10.4545C12.1733 8.23864 10.8523 6.68324 7.64205 5.99432L6.44886 5.73864C5.07102 5.44744 4.45312 5.04261 4.48864 4.34659C4.49574 3.70739 5.02841 3.23864 6.25 3.23864C7.52841 3.23864 8.1321 3.79972 8.21023 4.74432Z" fill="#8691A3"/>
<path d="M15.6896 14.7443H19.6385V9.0625H24.8658V14.7443H28.8146V0.198864H24.8658V5.88068H19.6385V0.198864H15.6896V14.7443Z" fill="#8691A3"/>
<path d="M32.6896 14.7443H36.6385V10.4261H38.826C42.1428 10.4261 44.3658 8.47301 44.3658 5.34091C44.3658 2.24432 42.1996 0.198864 38.968 0.198864H32.6896V14.7443ZM36.6385 7.35795V3.35227H38.0305C39.4155 3.35227 40.2465 4.09091 40.2465 5.34091C40.2465 6.58381 39.4155 7.35795 38.0305 7.35795H36.6385Z" fill="#8691A3"/>
</svg>
