<svg width="13" height="13" viewBox="0 0 13 13" fill="none" xmlns="http://www.w3.org/2000/svg">
<g clip-path="url(#clip0_119_236)">
<path d="M12.0394 0H0.960556C0.426111 0 0 0.426111 0 0.960556V12.0394C0 12.5667 0.426111 13 0.960556 13H12.0394C12.5667 13 13 12.5739 13 12.0394V0.960556C13 0.433333 12.5739 0 12.0394 0ZM3.87111 11.0717H1.91389V4.86778H3.87111V11.0789V11.0717ZM2.89611 4.00833C2.275 4.00833 1.76944 3.53167 1.76944 2.88889C1.76944 2.24611 2.275 1.76944 2.89611 1.76944C3.51722 1.76944 4.02278 2.24611 4.02278 2.88889C4.02278 3.53167 3.51722 4.00833 2.89611 4.00833ZM11.0789 11.0789H9.12167V7.68444C9.12167 6.68056 8.69555 6.37722 8.14667 6.37722C7.56889 6.37722 6.99833 6.81056 6.99833 7.71333V11.0789H5.04111V4.86778H6.91889V5.72722H6.94056C7.12833 5.34444 7.79278 4.69444 8.79667 4.69444C9.88722 4.69444 11.0644 5.34444 11.0644 7.23667V11.0789H11.0789Z" fill="#8691A3"/>
</g>
<defs>
<clipPath id="clip0_119_236">
<rect width="13" height="13" fill="white"/>
</clipPath>
</defs>
</svg>
